# File units = meters
mtllib AGORA.mtl
g Part 1
v 0.168634 -0.0126374 0 
v 0.167218 -0.0252041 0 
v 0.164867 -0.0376299 0 
v 0.161594 -0.0498452 0 
v 0.157417 -0.0617817 0 
v 0.15236 -0.0733728 0 
v 0.146451 -0.0845535 0 
v 0.139723 -0.0952614 0 
v 0.132213 -0.105437 0 
v 0.123964 -0.115022 0 
v 0.115022 -0.123964 0 
v 0.105437 -0.132213 0 
v 0.0952614 -0.139723 0 
v 0.0845535 -0.146451 0 
v 0.0733728 -0.15236 0 
v 0.0617817 -0.157417 0 
v 0.0498452 -0.161594 0 
v 0.0376299 -0.164867 0 
v 0.0252041 -0.167218 0 
v 0.0126374 -0.168634 0 
v 3.10645e-17 -0.169107 0 
v -0.0126374 -0.168634 0 
v -0.0252041 -0.167218 0 
v -0.0376299 -0.164867 0 
v -0.0498452 -0.161594 0 
v -0.0617817 -0.157417 0 
v -0.0733728 -0.15236 0 
v -0.0845535 -0.146451 0 
v -0.0952614 -0.139723 0 
v -0.105437 -0.132213 0 
v -0.115022 -0.123964 0 
v -0.123964 -0.115022 0 
v -0.132213 -0.105437 0 
v -0.139723 -0.0952614 0 
v -0.146451 -0.0845535 0 
v -0.15236 -0.0733728 0 
v -0.157417 -0.0617817 0 
v -0.161594 -0.0498452 0 
v -0.164867 -0.0376299 0 
v -0.167218 -0.0252041 0 
v -0.168634 -0.0126374 0 
v -0.169107 1.03548e-17 0 
v -0.168634 0.0126374 0 
v -0.167218 0.0252041 0 
v -0.164867 0.0376299 0 
v -0.161594 0.0498452 0 
v -0.157417 0.0617817 0 
v -0.15236 0.0733728 0 
v -0.146451 0.0845535 0 
v -0.139723 0.0952614 0 
v -0.132213 0.105437 0 
v -0.123964 0.115022 0 
v -0.115022 0.123964 0 
v -0.105437 0.132213 0 
v -0.0952614 0.139723 0 
v -0.0845535 0.146451 0 
v -0.0733728 0.15236 0 
v -0.0617817 0.157417 0 
v -0.0498452 0.161594 0 
v -0.0376299 0.164867 0 
v -0.0252041 0.167218 0 
v -0.0126374 0.168634 0 
v -1.03548e-17 0.169107 0 
v 0.0126374 0.168634 0 
v 0.0252041 0.167218 0 
v 0.0376299 0.164867 0 
v 0.0498452 0.161594 0 
v 0.0617817 0.157417 0 
v 0.0733728 0.15236 0 
v 0.0845535 0.146451 0 
v 0.0952614 0.139723 0 
v 0.105437 0.132213 0 
v 0.115022 0.123964 0 
v 0.123964 0.115022 0 
v 0.132213 0.105437 0 
v 0.139723 0.0952614 0 
v 0.146451 0.0845535 0 
v 0.15236 0.0733728 0 
v 0.157417 0.0617817 0 
v 0.161594 0.0498452 0 
v 0.164867 0.0376299 0 
v 0.167218 0.0252041 0 
v 0.168634 0.0126374 0 
v 0.169107 3.10645e-17 0 
v 0 1.03548e-17 0 
v -0.169107 1.03548e-17 0.005 
v -0.168634 0.0126374 0.005 
v -0.167218 0.0252041 0.005 
v -0.164867 0.0376299 0.005 
v -0.161594 0.0498452 0.005 
v -0.157417 0.0617817 0.005 
v -0.15236 0.0733728 0.005 
v -0.146451 0.0845535 0.005 
v -0.139723 0.0952614 0.005 
v -0.132213 0.105437 0.005 
v -0.123964 0.115022 0.005 
v -0.115022 0.123964 0.005 
v -0.105437 0.132213 0.005 
v -0.0952614 0.139723 0.005 
v -0.0845535 0.146451 0.005 
v -0.0733728 0.15236 0.005 
v -0.0617817 0.157417 0.005 
v -0.0498452 0.161594 0.005 
v -0.0376299 0.164867 0.005 
v -0.0252041 0.167218 0.005 
v -0.0126374 0.168634 0.005 
v -1.03548e-17 0.169107 0.005 
v 0.0126374 0.168634 0.005 
v 0.0252041 0.167218 0.005 
v 0.0376299 0.164867 0.005 
v 0.0498452 0.161594 0.005 
v 0.0617817 0.157417 0.005 
v 0.0733728 0.15236 0.005 
v 0.0845535 0.146451 0.005 
v 0.0952614 0.139723 0.005 
v 0.105437 0.132213 0.005 
v 0.115022 0.123964 0.005 
v 0.123964 0.115022 0.005 
v 0.132213 0.105437 0.005 
v 0.139723 0.0952614 0.005 
v 0.146451 0.0845535 0.005 
v 0.15236 0.0733728 0.005 
v 0.157417 0.0617817 0.005 
v 0.161594 0.0498452 0.005 
v 0.164867 0.0376299 0.005 
v 0.167218 0.0252041 0.005 
v 0.168634 0.0126374 0.005 
v 0.169107 7.24837e-17 0.005 
v 0.168634 -0.0126374 0.005 
v 0.167218 -0.0252041 0.005 
v 0.164867 -0.0376299 0.005 
v 0.161594 -0.0498452 0.005 
v 0.157417 -0.0617817 0.005 
v 0.15236 -0.0733728 0.005 
v 0.146451 -0.0845535 0.005 
v 0.139723 -0.0952614 0.005 
v 0.132213 -0.105437 0.005 
v 0.123964 -0.115022 0.005 
v 0.115022 -0.123964 0.005 
v 0.105437 -0.132213 0.005 
v 0.0952614 -0.139723 0.005 
v 0.0845535 -0.146451 0.005 
v 0.0733728 -0.15236 0.005 
v 0.0617817 -0.157417 0.005 
v 0.0498452 -0.161594 0.005 
v 0.0376299 -0.164867 0.005 
v 0.0252041 -0.167218 0.005 
v 0.0126374 -0.168634 0.005 
v 3.10645e-17 -0.169107 0.005 
v -0.0126374 -0.168634 0.005 
v -0.0252041 -0.167218 0.005 
v -0.0376299 -0.164867 0.005 
v -0.0498452 -0.161594 0.005 
v -0.0617817 -0.157417 0.005 
v -0.0733728 -0.15236 0.005 
v -0.0845535 -0.146451 0.005 
v -0.0952614 -0.139723 0.005 
v -0.105437 -0.132213 0.005 
v -0.115022 -0.123964 0.005 
v -0.123964 -0.115022 0.005 
v -0.132213 -0.105437 0.005 
v -0.139723 -0.0952614 0.005 
v -0.146451 -0.0845535 0.005 
v -0.15236 -0.0733728 0.005 
v -0.157417 -0.0617817 0.005 
v -0.161594 -0.0498452 0.005 
v -0.164867 -0.0376299 0.005 
v -0.167218 -0.0252041 0.005 
v -0.168634 -0.0126374 0.005 
v 0.025 0.0189577 0.005 
v -0.025 0.0189577 0.005 
v 0.025 -0.0310423 0.005 
v -0.025 -0.0310423 0.005 
v -0.025 -0.0310423 2.005 
v 0.025 -0.0310423 2.005 
v 0.025 0.0189577 2.005 
v -0.025 0.0189577 2.005 
vn 0 0 -1 
vn -1 0 0 
vn -0.997204 0.0747301 0 
vn -0.988831 0.149042 0 
vn -0.974928 0.222521 0 
vn -0.955573 0.294755 0 
vn -0.930874 0.365341 0 
vn -0.900969 0.433884 0 
vn -0.866025 0.5 0 
vn -0.826239 0.56332 0 
vn -0.781831 0.62349 0 
vn -0.733052 0.680173 0 
vn -0.680173 0.733052 0 
vn -0.62349 0.781831 0 
vn -0.56332 0.826239 0 
vn -0.5 0.866025 0 
vn -0.433884 0.900969 0 
vn -0.365341 0.930874 0 
vn -0.294755 0.955573 0 
vn -0.222521 0.974928 0 
vn -0.149042 0.988831 0 
vn -0.0747301 0.997204 0 
vn -6.12323e-17 1 0 
vn 0.0747301 0.997204 0 
vn 0.149042 0.988831 0 
vn 0.222521 0.974928 0 
vn 0.294755 0.955573 0 
vn 0.365341 0.930874 0 
vn 0.433884 0.900969 0 
vn 0.5 0.866025 0 
vn 0.56332 0.826239 0 
vn 0.62349 0.781831 0 
vn 0.680173 0.733052 0 
vn 0.733052 0.680173 0 
vn 0.781831 0.62349 0 
vn 0.826239 0.56332 0 
vn 0.866025 0.5 0 
vn 0.900969 0.433884 0 
vn 0.930874 0.365341 0 
vn 0.955573 0.294755 0 
vn 0.974928 0.222521 0 
vn 0.988831 0.149042 0 
vn 0.997204 0.0747301 0 
vn 1 1.22465e-16 0 
vn 0.997204 -0.0747301 0 
vn 0.988831 -0.149042 0 
vn 0.974928 -0.222521 0 
vn 0.955573 -0.294755 0 
vn 0.930874 -0.365341 0 
vn 0.900969 -0.433884 0 
vn 0.866025 -0.5 0 
vn 0.826239 -0.56332 0 
vn 0.781831 -0.62349 0 
vn 0.733052 -0.680173 0 
vn 0.680173 -0.733052 0 
vn 0.62349 -0.781831 0 
vn 0.56332 -0.826239 0 
vn 0.5 -0.866025 0 
vn 0.433884 -0.900969 0 
vn 0.365341 -0.930874 0 
vn 0.294755 -0.955573 0 
vn 0.222521 -0.974928 0 
vn 0.149042 -0.988831 0 
vn 0.0747301 -0.997204 0 
vn 1.83697e-16 -1 0 
vn -0.0747301 -0.997204 0 
vn -0.149042 -0.988831 0 
vn -0.222521 -0.974928 0 
vn -0.294755 -0.955573 0 
vn -0.365341 -0.930874 0 
vn -0.433884 -0.900969 0 
vn -0.5 -0.866025 0 
vn -0.56332 -0.826239 0 
vn -0.62349 -0.781831 0 
vn -0.680173 -0.733052 0 
vn -0.733052 -0.680173 0 
vn -0.781831 -0.62349 0 
vn -0.826239 -0.56332 0 
vn -0.866025 -0.5 0 
vn -0.900969 -0.433884 0 
vn -0.930874 -0.365341 0 
vn -0.955573 -0.294755 0 
vn -0.974928 -0.222521 0 
vn -0.988831 -0.149042 0 
vn -0.997204 -0.0747301 0 
vn 0 0 1 
vn 1.38778e-16 -1 0 
vn 1 0 0 
vn -1.38778e-16 1 0 
vn -1 0 0 
vn 0 0 1 
usemtl 0.615686_0.811765_0.929412_0.000000_0.000000
o mesh0
f 85//1 1//1 2//1 
f 2//1 3//1 85//1 
f 3//1 4//1 85//1 
f 4//1 5//1 85//1 
f 5//1 6//1 85//1 
f 6//1 7//1 85//1 
f 7//1 8//1 85//1 
f 8//1 9//1 85//1 
f 9//1 10//1 85//1 
f 10//1 11//1 85//1 
f 11//1 12//1 85//1 
f 12//1 13//1 85//1 
f 13//1 14//1 85//1 
f 14//1 15//1 85//1 
f 15//1 16//1 85//1 
f 16//1 17//1 85//1 
f 17//1 18//1 85//1 
f 18//1 19//1 85//1 
f 19//1 20//1 85//1 
f 20//1 21//1 85//1 
f 21//1 22//1 85//1 
f 22//1 23//1 85//1 
f 23//1 24//1 85//1 
f 24//1 25//1 85//1 
f 25//1 26//1 85//1 
f 26//1 27//1 85//1 
f 27//1 28//1 85//1 
f 28//1 29//1 85//1 
f 29//1 30//1 85//1 
f 30//1 31//1 85//1 
f 31//1 32//1 85//1 
f 32//1 33//1 85//1 
f 33//1 34//1 85//1 
f 34//1 35//1 85//1 
f 35//1 36//1 85//1 
f 36//1 37//1 85//1 
f 37//1 38//1 85//1 
f 38//1 39//1 85//1 
f 39//1 40//1 85//1 
f 40//1 41//1 85//1 
f 41//1 42//1 85//1 
f 42//1 43//1 85//1 
f 43//1 44//1 85//1 
f 44//1 45//1 85//1 
f 45//1 46//1 85//1 
f 46//1 47//1 85//1 
f 47//1 48//1 85//1 
f 48//1 49//1 85//1 
f 49//1 50//1 85//1 
f 50//1 51//1 85//1 
f 51//1 52//1 85//1 
f 52//1 53//1 85//1 
f 53//1 54//1 85//1 
f 54//1 55//1 85//1 
f 55//1 56//1 85//1 
f 56//1 57//1 85//1 
f 57//1 58//1 85//1 
f 58//1 59//1 85//1 
f 59//1 60//1 85//1 
f 60//1 61//1 85//1 
f 61//1 62//1 85//1 
f 62//1 63//1 85//1 
f 63//1 64//1 85//1 
f 64//1 65//1 85//1 
f 65//1 66//1 85//1 
f 66//1 67//1 85//1 
f 67//1 68//1 85//1 
f 68//1 69//1 85//1 
f 69//1 70//1 85//1 
f 70//1 71//1 85//1 
f 71//1 72//1 85//1 
f 72//1 73//1 85//1 
f 73//1 74//1 85//1 
f 74//1 75//1 85//1 
f 75//1 76//1 85//1 
f 76//1 77//1 85//1 
f 77//1 78//1 85//1 
f 78//1 79//1 85//1 
f 79//1 80//1 85//1 
f 80//1 81//1 85//1 
f 81//1 82//1 85//1 
f 82//1 83//1 85//1 
f 83//1 84//1 85//1 
f 84//1 1//1 85//1 
o mesh1
f 42//2 86//2 87//3 
f 43//3 87//3 88//4 
f 44//4 88//4 89//5 
f 45//5 89//5 90//6 
f 46//6 90//6 91//7 
f 47//7 91//7 92//8 
f 48//8 92//8 93//9 
f 49//9 93//9 94//10 
f 50//10 94//10 95//11 
f 51//11 95//11 96//12 
f 52//12 96//12 97//13 
f 53//13 97//13 98//14 
f 54//14 98//14 99//15 
f 55//15 99//15 100//16 
f 56//16 100//16 101//17 
f 57//17 101//17 102//18 
f 58//18 102//18 103//19 
f 59//19 103//19 104//20 
f 60//20 104//20 105//21 
f 61//21 105//21 106//22 
f 62//22 106//22 107//23 
f 63//23 107//23 108//24 
f 64//24 108//24 109//25 
f 65//25 109//25 110//26 
f 66//26 110//26 111//27 
f 67//27 111//27 112//28 
f 68//28 112//28 113//29 
f 69//29 113//29 114//30 
f 70//30 114//30 115//31 
f 71//31 115//31 116//32 
f 72//32 116//32 117//33 
f 73//33 117//33 118//34 
f 74//34 118//34 119//35 
f 75//35 119//35 120//36 
f 76//36 120//36 121//37 
f 77//37 121//37 122//38 
f 78//38 122//38 123//39 
f 79//39 123//39 124//40 
f 80//40 124//40 125//41 
f 81//41 125//41 126//42 
f 82//42 126//42 127//43 
f 83//43 127//43 128//44 
f 84//44 128//44 129//45 
f 1//45 129//45 130//46 
f 2//46 130//46 131//47 
f 3//47 131//47 132//48 
f 4//48 132//48 133//49 
f 5//49 133//49 134//50 
f 6//50 134//50 135//51 
f 7//51 135//51 136//52 
f 8//52 136//52 137//53 
f 9//53 137//53 138//54 
f 10//54 138//54 139//55 
f 11//55 139//55 140//56 
f 12//56 140//56 141//57 
f 13//57 141//57 142//58 
f 14//58 142//58 143//59 
f 15//59 143//59 144//60 
f 16//60 144//60 145//61 
f 17//61 145//61 146//62 
f 18//62 146//62 147//63 
f 19//63 147//63 148//64 
f 20//64 148//64 149//65 
f 21//65 149//65 150//66 
f 22//66 150//66 151//67 
f 23//67 151//67 152//68 
f 24//68 152//68 153//69 
f 25//69 153//69 154//70 
f 26//70 154//70 155//71 
f 27//71 155//71 156//72 
f 28//72 156//72 157//73 
f 29//73 157//73 158//74 
f 30//74 158//74 159//75 
f 31//75 159//75 160//76 
f 32//76 160//76 161//77 
f 33//77 161//77 162//78 
f 34//78 162//78 163//79 
f 35//79 163//79 164//80 
f 36//80 164//80 165//81 
f 37//81 165//81 166//82 
f 38//82 166//82 167//83 
f 39//83 167//83 168//84 
f 40//84 168//84 169//85 
f 41//85 169//85 86//2 
f 86//2 42//2 41//85 
f 169//85 41//85 40//84 
f 168//84 40//84 39//83 
f 167//83 39//83 38//82 
f 166//82 38//82 37//81 
f 165//81 37//81 36//80 
f 164//80 36//80 35//79 
f 163//79 35//79 34//78 
f 162//78 34//78 33//77 
f 161//77 33//77 32//76 
f 160//76 32//76 31//75 
f 159//75 31//75 30//74 
f 158//74 30//74 29//73 
f 157//73 29//73 28//72 
f 156//72 28//72 27//71 
f 155//71 27//71 26//70 
f 154//70 26//70 25//69 
f 153//69 25//69 24//68 
f 152//68 24//68 23//67 
f 151//67 23//67 22//66 
f 150//66 22//66 21//65 
f 149//65 21//65 20//64 
f 148//64 20//64 19//63 
f 147//63 19//63 18//62 
f 146//62 18//62 17//61 
f 145//61 17//61 16//60 
f 144//60 16//60 15//59 
f 143//59 15//59 14//58 
f 142//58 14//58 13//57 
f 141//57 13//57 12//56 
f 140//56 12//56 11//55 
f 139//55 11//55 10//54 
f 138//54 10//54 9//53 
f 137//53 9//53 8//52 
f 136//52 8//52 7//51 
f 135//51 7//51 6//50 
f 134//50 6//50 5//49 
f 133//49 5//49 4//48 
f 132//48 4//48 3//47 
f 131//47 3//47 2//46 
f 130//46 2//46 1//45 
f 129//45 1//45 84//44 
f 128//44 84//44 83//43 
f 127//43 83//43 82//42 
f 126//42 82//42 81//41 
f 125//41 81//41 80//40 
f 124//40 80//40 79//39 
f 123//39 79//39 78//38 
f 122//38 78//38 77//37 
f 121//37 77//37 76//36 
f 120//36 76//36 75//35 
f 119//35 75//35 74//34 
f 118//34 74//34 73//33 
f 117//33 73//33 72//32 
f 116//32 72//32 71//31 
f 115//31 71//31 70//30 
f 114//30 70//30 69//29 
f 113//29 69//29 68//28 
f 112//28 68//28 67//27 
f 111//27 67//27 66//26 
f 110//26 66//26 65//25 
f 109//25 65//25 64//24 
f 108//24 64//24 63//23 
f 107//23 63//23 62//22 
f 106//22 62//22 61//21 
f 105//21 61//21 60//20 
f 104//20 60//20 59//19 
f 103//19 59//19 58//18 
f 102//18 58//18 57//17 
f 101//17 57//17 56//16 
f 100//16 56//16 55//15 
f 99//15 55//15 54//14 
f 98//14 54//14 53//13 
f 97//13 53//13 52//12 
f 96//12 52//12 51//11 
f 95//11 51//11 50//10 
f 94//10 50//10 49//9 
f 93//9 49//9 48//8 
f 92//8 48//8 47//7 
f 91//7 47//7 46//6 
f 90//6 46//6 45//5 
f 89//5 45//5 44//4 
f 88//4 44//4 43//3 
f 87//3 43//3 42//2 
o mesh2
f 170//86 125//86 124//86 
f 170//86 128//86 127//86 
f 170//86 126//86 125//86 
f 170//86 129//86 128//86 
f 171//86 106//86 105//86 
f 127//86 126//86 170//86 
f 170//86 131//86 130//86 
f 131//86 170//86 172//86 
f 172//86 134//86 133//86 
f 171//86 102//86 101//86 
f 171//86 107//86 106//86 
f 170//86 108//86 107//86 
f 170//86 111//86 110//86 
f 167//86 166//86 173//86 
f 171//86 89//86 88//86 
f 172//86 146//86 145//86 
f 130//86 129//86 170//86 
f 133//86 132//86 172//86 
f 172//86 137//86 136//86 
f 101//86 100//86 171//86 
f 171//86 104//86 103//86 
f 107//86 171//86 170//86 
f 110//86 109//86 170//86 
f 170//86 113//86 112//86 
f 170//86 115//86 114//86 
f 173//86 171//86 167//86 
f 171//86 90//86 89//86 
f 172//86 141//86 140//86 
f 172//86 144//86 143//86 
f 172//86 147//86 146//86 
f 170//86 120//86 119//86 
f 172//86 132//86 131//86 
f 136//86 135//86 172//86 
f 171//86 99//86 98//86 
f 103//86 102//86 171//86 
f 109//86 108//86 170//86 
f 114//86 113//86 170//86 
f 173//86 165//86 164//86 
f 171//86 168//86 167//86 
f 171//86 86//86 169//86 
f 88//86 87//86 171//86 
f 171//86 92//86 91//86 
f 171//86 95//86 94//86 
f 172//86 142//86 141//86 
f 145//86 144//86 172//86 
f 172//86 173//86 149//86 
f 170//86 121//86 120//86 
f 170//86 123//86 122//86 
f 135//86 134//86 172//86 
f 172//86 139//86 138//86 
f 98//86 97//86 171//86 
f 105//86 104//86 171//86 
f 170//86 116//86 115//86 
f 170//86 118//86 117//86 
f 166//86 165//86 173//86 
f 87//86 86//86 171//86 
f 171//86 93//86 92//86 
f 171//86 96//86 95//86 
f 143//86 142//86 172//86 
f 149//86 148//86 172//86 
f 173//86 152//86 151//86 
f 122//86 121//86 170//86 
f 138//86 137//86 172//86 
f 100//86 99//86 171//86 
f 117//86 116//86 170//86 
f 173//86 161//86 160//86 
f 173//86 163//86 162//86 
f 169//86 168//86 171//86 
f 94//86 93//86 171//86 
f 148//86 147//86 172//86 
f 151//86 150//86 173//86 
f 173//86 154//86 153//86 
f 173//86 156//86 155//86 
f 124//86 123//86 170//86 
f 112//86 111//86 170//86 
f 162//86 161//86 173//86 
f 91//86 90//86 171//86 
f 150//86 149//86 173//86 
f 155//86 154//86 173//86 
f 173//86 158//86 157//86 
f 97//86 96//86 171//86 
f 164//86 163//86 173//86 
f 153//86 152//86 173//86 
f 173//86 159//86 158//86 
f 160//86 159//86 173//86 
f 157//86 156//86 173//86 
f 140//86 139//86 172//86 
f 119//86 118//86 170//86 
o mesh3
f 174//87 173//87 172//87 
f 172//87 175//87 174//87 
o mesh4
f 175//88 172//88 170//88 
f 170//88 176//88 175//88 
o mesh5
f 176//89 170//89 171//89 
f 171//89 177//89 176//89 
o mesh6
f 177//90 171//90 173//90 
f 173//90 174//90 177//90 
o mesh7
f 177//91 174//91 175//91 
f 175//91 176//91 177//91 
