# File units = meters
mtllib HEART.mtl
g Part 1
v -0.0288538 0.0164454 0.0183333 
v -0.0277341 0.0127474 0.0183333 
v -0.0221871 0.0164454 0.025 
v -0.0288538 0.0164454 0.01 
v -0.0277341 0.0127474 0.00888034 
v -0.0288538 0.0288538 0.0183333 
v -0.0288538 0.0288538 0.01 
v -0.005547 -0.0205333 0.0183333 
v -0.0255204 0.00942688 0.00666667 
v -0.005547 -0.0205333 0.00666667 
v -0.0217827 0.0105586 0.00292893 
v -0.00200308 -0.0191108 0.00292893 
v -0.00200308 -0.0205333 0.00371795 
v -0.0188538 0.0189127 0 
v 0.00048603 -0.010097 0 
v -0.0188538 0.02623 0 
v -0.0189976 0.0463431 0.01 
v -0.0164834 0.0304361 0 
v 0.0271743 0.0119076 0.01 
v 0.005547 -0.0205333 0.01 
v 0.0188538 0.0174546 0 
v 0.005547 -0.0205333 0.0183333 
v -4.64278e-18 -0.0168353 0.025 
v -0.0221871 0.0271046 0.025 
v -0.0189976 0.0463431 0.0183333 
v -0.0173214 0.0357385 0.025 
v -1.73472e-18 0.0288538 0.0183333 
v -1.73472e-18 0.0288538 0.01 
v 0.00038939 0.0194337 0.025 
v 0.0159681 0.0363558 0.025 
v 0.0168566 0.0471641 0.0183333 
v 0.000584085 0.0147237 0 
v 0.0168566 0.0471641 0.01 
v 0.0155238 0.0309517 0 
v 0.0188538 0.0258695 0 
v 0.0272182 0.03135 0.01 
v 0.0288538 0.0258695 0.01 
v 0.0288538 0.0174546 0.01 
v 0.0221871 0.0164454 0.025 
v 0.0221871 0.0268642 0.025 
v 0.0259248 0.0279797 0.0212623 
v 0.027138 0.0314723 0.0183333 
v 0.027138 0.0118533 0.0183333 
v 0.0259248 0.0153137 0.0212623 
v 0.0271743 0.0119076 0.0182459 
v 0.0288538 0.0174546 0.0141912 
v 0.0288538 0.0258695 0.0141912 
v 0.0272182 0.03135 0.0181397 
vn -0.691438 -0.209351 0.691438 
vn -0.957092 -0.289784 0 
vn -1 -2.40485e-16 0 
vn -0.83205 -0.5547 0 
vn -0.588348 -0.392232 -0.707107 
vn -0.318412 -0.212275 -0.92388 
vn -0.707107 -1.70049e-16 -0.707107 
vn -0.61602 0.347159 -0.707107 
vn 0.588348 -0.392232 -0.707107 
vn 0 -1 0 
vn -0.588348 -0.392232 0.707107 
vn -0.707107 -1.70049e-16 0.707107 
vn -0.871184 0.490957 0 
vn -0.61602 0.347159 0.707107 
vn 0.677299 0.735708 0 
vn 0.478923 0.520224 0.707107 
vn -0.520224 0.478923 0.707107 
vn 0.478923 0.520224 -0.707107 
vn -0.735708 0.677299 0 
vn -0.520224 0.478923 -0.707107 
vn 0 0 -1 
vn 0.591457 0.38753 -0.707107 
vn 0.707107 -3.40097e-16 -0.707107 
vn -1.51697e-16 -0.874475 0.485071 
vn 0 0 1 
vn 0.591457 0.38753 0.707107 
vn 0.588348 -0.392232 0.707107 
vn 0.707107 -3.40097e-16 0.707107 
vn 0.83205 -0.5547 0 
vn 0.957092 -0.289784 0 
vn 0.691438 -0.209351 -0.691438 
vn 0.92388 -4.44358e-16 0.382683 
vn 0.836446 0.54805 0 
vn 1 -4.8097e-16 0 
vn 0.958239 0.285967 0 
vn 0.69187 0.206474 -0.69187 
usemtl 0.615686_0.811765_0.929412_0.000000_0.000000
o mesh0
f 1//1 2//1 3//1 
o mesh1
f 2//2 1//2 4//2 
f 4//2 5//2 2//2 
o mesh2
f 1//3 6//3 7//3 
f 7//3 4//3 1//3 
o mesh3
f 8//4 2//4 9//4 
f 2//4 5//4 9//4 
f 9//4 10//4 8//4 
o mesh4
f 10//5 9//5 11//5 
f 11//5 12//5 10//5 
f 12//5 13//5 10//5 
o mesh5
f 11//6 14//6 15//6 
f 15//6 12//6 11//6 
o mesh6
f 4//7 7//7 16//7 
f 14//7 5//7 4//7 
f 5//7 14//7 11//7 
f 11//7 9//7 5//7 
f 16//7 14//7 4//7 
o mesh7
f 7//8 17//8 18//8 
f 18//8 16//8 7//8 
o mesh8
f 19//9 20//9 15//9 
f 20//9 12//9 15//9 
f 20//9 13//9 12//9 
f 15//9 21//9 19//9 
o mesh9
f 20//10 8//10 10//10 
f 10//10 13//10 20//10 
f 20//10 22//10 8//10 
o mesh10
f 3//11 2//11 8//11 
f 8//11 23//11 3//11 
o mesh11
f 1//12 3//12 24//12 
f 24//12 6//12 1//12 
o mesh12
f 6//13 25//13 17//13 
f 17//13 7//13 6//13 
o mesh13
f 6//14 24//14 26//14 
f 26//14 25//14 6//14 
o mesh14
f 25//15 27//15 28//15 
f 28//15 17//15 25//15 
o mesh15
f 27//16 25//16 26//16 
f 26//16 29//16 27//16 
o mesh16
f 27//17 29//17 30//17 
f 30//17 31//17 27//17 
o mesh17
f 28//18 32//18 18//18 
f 18//18 17//18 28//18 
o mesh18
f 27//19 31//19 33//19 
f 33//19 28//19 27//19 
o mesh19
f 28//20 33//20 34//20 
f 34//20 32//20 28//20 
o mesh20
f 32//21 35//21 21//21 
f 32//21 15//21 14//21 
f 32//21 34//21 35//21 
f 14//21 16//21 32//21 
f 16//21 18//21 32//21 
f 21//21 15//21 32//21 
o mesh21
f 36//22 35//22 34//22 
f 34//22 33//22 36//22 
o mesh22
f 35//23 37//23 38//23 
f 38//23 21//23 35//23 
o mesh23
f 8//24 22//24 23//24 
o mesh24
f 29//25 24//25 3//25 
f 29//25 23//25 39//25 
f 29//25 26//25 24//25 
f 39//25 40//25 29//25 
f 40//25 30//25 29//25 
f 3//25 23//25 29//25 
o mesh25
f 30//26 41//26 42//26 
f 30//26 40//26 41//26 
f 42//26 31//26 30//26 
o mesh26
f 23//27 22//27 43//27 
f 43//27 44//27 23//27 
f 44//27 39//27 23//27 
o mesh27
f 41//28 40//28 39//28 
f 39//28 44//28 41//28 
o mesh28
f 20//29 45//29 43//29 
f 20//29 19//29 45//29 
f 43//29 22//29 20//29 
o mesh29
f 19//30 38//30 46//30 
f 46//30 45//30 19//30 
o mesh30
f 38//31 19//31 21//31 
o mesh31
f 46//32 41//32 44//32 
f 44//32 45//32 46//32 
f 46//32 47//32 41//32 
f 44//32 43//32 45//32 
f 47//32 48//32 41//32 
f 48//32 42//32 41//32 
o mesh32
f 33//33 31//33 42//33 
f 42//33 48//33 33//33 
f 48//33 36//33 33//33 
o mesh33
f 38//34 37//34 47//34 
f 47//34 46//34 38//34 
o mesh34
f 36//35 48//35 47//35 
f 47//35 37//35 36//35 
o mesh35
f 35//36 36//36 37//36 
