# File units = meters
mtllib STAR.mtl
g Part 1
v 0.0112257 0.0154508 0.02 
v 0.0475528 0.0154508 0.02 
v 0.0475528 0.0154508 0.01 
v 0.0112257 0.0154508 0.01 
v -3.46945e-18 0.05 0.02 
v -3.46945e-18 0.05 0.01 
v 0.00396027 0.00545085 0 
v 7.17015e-18 0.0176393 0 
v -0.0112257 0.0154508 0.01 
v -0.00396027 0.00545085 0 
v 0.0203635 0.00545085 0 
v 0.0190921 -0.00875932 0.01 
v 0.00751227 -0.00548106 0 
v -0.0112257 0.0154508 0.02 
v -0.0203635 0.00545085 0 
v -0.0475528 0.0154508 0.01 
v 7.92974e-18 0.0176393 0.03 
v 0.00396027 0.00545085 0.03 
v -0.00396027 0.00545085 0.03 
v -0.0475528 0.0154508 0.02 
v -0.0190921 -0.00875932 0.01 
v -0.00751227 -0.00548106 0 
v -0.0203635 0.00545085 0.03 
v -0.0190921 -0.00875932 0.02 
v -0.0122814 -0.020159 0 
v -0.0293893 -0.0404508 0.01 
v 0.0122814 -0.020159 0 
v -1.05898e-17 -0.0137022 0 
v 0 -0.025 0.01 
v -0.0293893 -0.0404508 0.02 
v -0.00751227 -0.00548106 0.03 
v 0.0293893 -0.0404508 0.01 
v 0 -0.025 0.02 
v -0.0122814 -0.020159 0.03 
v 0.0293893 -0.0404508 0.02 
v -1.16136e-17 -0.0137022 0.03 
v 0.0190921 -0.00875932 0.02 
v 0.0122814 -0.020159 0.03 
v 0.00751227 -0.00548106 0.03 
v 0.0203635 0.00545085 0.03 
vn -3.82023e-16 1 0 
vn 0.951057 0.309017 0 
vn 0.672499 0.218508 -0.707107 
vn -0.672499 0.218508 -0.707107 
vn -2.70131e-16 0.707107 -0.707107 
vn 0.45816 -0.538599 -0.707107 
vn -0.951057 0.309017 0 
vn -2.70131e-16 0.707107 -0.707107 
vn 0.672499 0.218508 0.707107 
vn -0.672499 0.218508 0.707107 
vn -3.82023e-16 1 0 
vn -0.45816 -0.538599 -0.707107 
vn -2.70131e-16 0.707107 0.707107 
vn -0.647936 -0.761695 0 
vn -0.672499 0.218508 -0.707107 
vn 0 0 -1 
vn 0.329046 -0.625882 -0.707107 
vn -0.951057 0.309017 0 
vn -0.45816 -0.538599 0.707107 
vn -0.329046 -0.625882 -0.707107 
vn 0.465341 -0.885131 0 
vn -0.672499 0.218508 0.707107 
vn 0.672499 0.218508 -0.707107 
vn -0.465341 -0.885131 0 
vn 0.329046 -0.625882 0.707107 
vn 0.951057 0.309017 0 
vn -0.329046 -0.625882 0.707107 
vn 0 0 1 
vn 0.647936 -0.761695 0 
vn -2.70131e-16 0.707107 0.707107 
vn 0.672499 0.218508 0.707107 
vn 0.45816 -0.538599 0.707107 
usemtl 0.615686_0.811765_0.929412_0.000000_0.000000
o mesh0
f 1//1 2//1 3//1 
f 3//1 4//1 1//1 
o mesh1
f 5//2 1//2 4//2 
f 4//2 6//2 5//2 
o mesh2
f 4//3 7//3 8//3 
f 8//3 6//3 4//3 
o mesh3
f 9//4 6//4 8//4 
f 8//4 10//4 9//4 
o mesh4
f 4//5 3//5 11//5 
f 11//5 7//5 4//5 
o mesh5
f 12//6 13//6 11//6 
f 11//6 3//6 12//6 
o mesh6
f 14//7 5//7 6//7 
f 6//7 9//7 14//7 
o mesh7
f 9//8 10//8 15//8 
f 15//8 16//8 9//8 
o mesh8
f 1//9 5//9 17//9 
f 17//9 18//9 1//9 
o mesh9
f 14//10 19//10 17//10 
f 17//10 5//10 14//10 
o mesh10
f 20//11 14//11 9//11 
f 9//11 16//11 20//11 
o mesh11
f 21//12 16//12 15//12 
f 15//12 22//12 21//12 
o mesh12
f 14//13 20//13 23//13 
f 23//13 19//13 14//13 
o mesh13
f 24//14 20//14 16//14 
f 16//14 21//14 24//14 
o mesh14
f 21//15 22//15 25//15 
f 25//15 26//15 21//15 
o mesh15
f 10//16 8//16 7//16 
f 7//16 13//16 10//16 
f 10//16 27//16 22//16 
f 22//16 27//16 28//16 
f 13//16 27//16 10//16 
f 28//16 25//16 22//16 
f 22//16 15//16 10//16 
f 7//16 11//16 13//16 
o mesh16
f 29//17 26//17 25//17 
f 25//17 28//17 29//17 
o mesh17
f 30//18 24//18 21//18 
f 21//18 26//18 30//18 
o mesh18
f 24//19 31//19 23//19 
f 23//19 20//19 24//19 
o mesh19
f 29//20 28//20 27//20 
f 27//20 32//20 29//20 
o mesh20
f 33//21 30//21 26//21 
f 26//21 29//21 33//21 
o mesh21
f 24//22 30//22 34//22 
f 34//22 31//22 24//22 
o mesh22
f 12//23 32//23 27//23 
f 27//23 13//23 12//23 
o mesh23
f 35//24 33//24 29//24 
f 29//24 32//24 35//24 
o mesh24
f 33//25 36//25 34//25 
f 34//25 30//25 33//25 
o mesh25
f 37//26 35//26 32//26 
f 32//26 12//26 37//26 
o mesh26
f 33//27 35//27 38//27 
f 38//27 36//27 33//27 
o mesh27
f 31//28 18//28 19//28 
f 19//28 23//28 31//28 
f 18//28 34//28 39//28 
f 39//28 34//28 36//28 
f 18//28 17//28 19//28 
f 36//28 38//28 39//28 
f 39//28 40//28 18//28 
f 31//28 34//28 18//28 
o mesh28
f 2//29 37//29 12//29 
f 12//29 3//29 2//29 
o mesh29
f 1//30 18//30 40//30 
f 40//30 2//30 1//30 
o mesh30
f 37//31 39//31 38//31 
f 38//31 35//31 37//31 
o mesh31
f 37//32 2//32 40//32 
f 40//32 39//32 37//32 
