# File units = meters
mtllib TANK_HEAD_BETTER.mtl
g Part 1
v 0.0513495 0.0790808 0.02 
v 0.0513495 0.0740808 0.025 
v 0.0548851 0.0740808 0.0235355 
v 0.0784206 0.0740808 0 
v 0.0663495 0.0790808 0.005 
v -0.0734206 0.0790808 0.005 
v -0.0734206 0.0790808 0.02 
v -0.0784206 0.0740808 0 
v 0.0548851 -0.0755453 0.0235355 
v 0.0584206 -0.0790808 0.02 
v 0.0784206 -0.0790808 0 
v -0.0784206 -0.0790808 0 
v -0.0784206 -0.0790808 0.02 
v -0.0784206 0.0740808 0.02 
v 0.0513495 -0.0740808 0.025 
v -0.0734206 -0.0740808 0.025 
v -0.0734206 0.0740808 0.025 
vn 0.281085 0.678598 0.678598 
vn 0.5 0.707107 0.5 
vn 0 1 0 
vn 0 0.707107 -0.707107 
vn 0.707107 0 0.707107 
vn 0 -1 0 
vn 0 0 -1 
vn -1 0 0 
vn 0 -0.707107 0.707107 
vn 0 0 1 
vn 0.382683 0 0.92388 
vn -0.707107 0.707107 0 
vn 0 0.707107 0.707107 
vn -0.707107 0 0.707107 
vn -0.57735 0.57735 0.57735 
usemtl 0.615686_0.811765_0.929412_0.000000_0.000000
o mesh0
f 1//1 2//1 3//1 
o mesh1
f 3//2 4//2 5//2 
f 5//2 1//2 3//2 
o mesh2
f 6//3 7//3 1//3 
f 1//3 5//3 6//3 
o mesh3
f 8//4 6//4 5//4 
f 5//4 4//4 8//4 
o mesh4
f 4//5 3//5 9//5 
f 9//5 10//5 4//5 
f 10//5 11//5 4//5 
o mesh5
f 12//6 11//6 10//6 
f 10//6 13//6 12//6 
o mesh6
f 11//7 12//7 8//7 
f 8//7 4//7 11//7 
o mesh7
f 8//8 12//8 13//8 
f 13//8 14//8 8//8 
o mesh8
f 13//9 9//9 15//9 
f 13//9 10//9 9//9 
f 15//9 16//9 13//9 
o mesh9
f 2//10 17//10 16//10 
f 16//10 15//10 2//10 
o mesh10
f 3//11 2//11 15//11 
f 15//11 9//11 3//11 
o mesh11
f 14//12 7//12 6//12 
f 6//12 8//12 14//12 
o mesh12
f 17//13 2//13 1//13 
f 1//13 7//13 17//13 
o mesh13
f 14//14 13//14 16//14 
f 16//14 17//14 14//14 
o mesh14
f 7//15 14//15 17//15 
