# File units = meters
mtllib TANK_SENILE_FRUMOASE.mtl
g Part 2
v -0.142079 -0.0586201 0 
v -0.117079 -0.0586201 0.025 
v 0.117079 -0.0586201 0.025 
v 0.142079 -0.0586201 0 
v 0.117079 -0.0836201 0.025 
v -0.117079 -0.0836201 0.025 
v -0.142079 -0.0836201 0 
v 0.142079 -0.0836201 0 
vn 0 1 0 
vn 0 0 1 
vn 0 -1 0 
vn 0 0 -1 
vn -0.707107 0 0.707107 
vn 0.707107 0 0.707107 
usemtl 0.647059_0.647059_0.647059_0.000000_0.000000
o mesh0
f 1//1 2//1 3//1 
f 3//1 4//1 1//1 
o mesh1
f 5//2 3//2 2//2 
f 2//2 6//2 5//2 
o mesh2
f 7//3 8//3 5//3 
f 5//3 6//3 7//3 
o mesh3
f 7//4 1//4 4//4 
f 4//4 8//4 7//4 
o mesh4
f 7//5 6//5 2//5 
f 2//5 1//5 7//5 
o mesh5
f 5//6 8//6 4//6 
f 4//6 3//6 5//6 
g Part 1
v 0.142079 0.0833834 0 
v -0.142079 0.0833834 0 
v -0.117079 0.0833834 0.025 
v 0.117079 0.0833834 0.025 
v -0.117079 0.0583834 0.025 
v 0.117079 0.0583834 0.025 
v -0.142079 0.0583834 0 
v 0.142079 0.0583834 0 
vn 0 1 0 
vn 0 0 1 
vn 0 -1 0 
vn 0 0 -1 
vn 0.707107 0 0.707107 
vn -0.707107 0 0.707107 
usemtl 0.615686_0.811765_0.929412_0.000000_0.000000
o mesh6
f 9//7 10//7 11//7 
f 11//7 12//7 9//7 
o mesh7
f 12//8 11//8 13//8 
f 13//8 14//8 12//8 
o mesh8
f 15//9 16//9 14//9 
f 14//9 13//9 15//9 
o mesh9
f 16//10 15//10 10//10 
f 10//10 9//10 16//10 
o mesh10
f 14//11 16//11 9//11 
f 9//11 12//11 14//11 
o mesh11
f 10//12 15//12 13//12 
f 13//12 11//12 10//12 
