# File units = meters
mtllib TANK_HEAD_BUN.mtl
g Part 1
v -0.075 -0.075 0 
v 0.075 -0.075 0 
v 0.055 -0.075 0.02 
v -0.075 -0.075 0.02 
v 0.075 0.075 0 
v -0.075 0.075 0 
v -0.075 0.075 0.02 
v 0.055 0.075 0.02 
v 0.0516543 0.0737157 0.0233457 
v 0.0516543 -0.0737157 0.0233457 
v 0.0520611 -0.0740451 0.0229389 
v 0.0525 -0.0743301 0.0225 
v 0.0525 0.0743301 0.0225 
v 0.0520611 0.0740451 0.0229389 
v 0.0529663 -0.0745677 0.0220337 
v 0.0529663 0.0745677 0.0220337 
v 0.0534549 -0.0747553 0.0215451 
v 0.0534549 0.0747553 0.0215451 
v 0.0539604 -0.0748907 0.0210396 
v 0.0539604 0.0748907 0.0210396 
v 0.0544774 -0.0749726 0.0205226 
v 0.0514645 0.0735355 0.0235355 
v 0.0514645 -0.0735355 0.0235355 
v 0.0544774 0.0749726 0.0205226 
v -0.0705226 -0.0705226 0.0249726 
v 0.0484516 -0.0705226 0.0249726 
v 0.0484189 -0.07049 0.0249743 
v -0.07 -0.07 0.025 
v 0.0479289 -0.07 0.025 
v -0.0710396 -0.0710396 0.0248907 
v 0.0489685 -0.0710396 0.0248907 
v 0.0489039 -0.070975 0.024901 
v -0.0715451 -0.0715451 0.0247553 
v 0.049474 -0.0715451 0.0247553 
v 0.0493793 -0.0714503 0.0247807 
v -0.0720337 -0.0720337 0.0245677 
v 0.0499626 -0.0720337 0.0245677 
v 0.0498405 -0.0719116 0.0246146 
v -0.0725 -0.0725 0.0243301 
v 0.0504289 -0.0725 0.0243301 
v 0.0502832 -0.0723543 0.0244044 
v -0.0729389 -0.0729389 0.0240451 
v 0.0508679 -0.0729389 0.0240451 
v 0.0507033 -0.0727743 0.024152 
v -0.0733457 -0.0733457 0.0237157 
v 0.0512746 -0.0733457 0.0237157 
v 0.0510966 -0.0731677 0.0238598 
v -0.0737157 -0.0737157 0.0233457 
v -0.0740451 -0.0740451 0.0229389 
v -0.0741934 -0.0741934 0.0227232 
v -0.074455 -0.074455 0.02227 
v -0.0743301 -0.0743301 0.0225 
v -0.0746679 -0.0746679 0.0217918 
v -0.0745677 -0.0745677 0.0220337 
v -0.0748296 -0.0748296 0.0212941 
v -0.0747553 -0.0747553 0.0215451 
v -0.0749384 -0.0749384 0.0207822 
v -0.0748907 -0.0748907 0.0210396 
v -0.0749931 -0.0749931 0.0202617 
v -0.0749726 -0.0749726 0.0205226 
v -0.0749931 0.0749931 0.0202617 
v -0.0749726 0.0749726 0.0205226 
v -0.0749384 0.0749384 0.0207822 
v -0.0748907 0.0748907 0.0210396 
v -0.0748296 0.0748296 0.0212941 
v -0.0747553 0.0747553 0.0215451 
v -0.0746679 0.0746679 0.0217918 
v -0.0745677 0.0745677 0.0220337 
v -0.074455 0.074455 0.02227 
v -0.0743301 0.0743301 0.0225 
v -0.0741934 0.0741934 0.0227232 
v -0.0740451 0.0740451 0.0229389 
v -0.0737157 0.0737157 0.0233457 
v -0.0705226 0.0705226 0.0249726 
v -0.07 0.07 0.025 
v 0.0479289 0.07 0.025 
v 0.0484189 0.07049 0.0249743 
v -0.0710396 0.0710396 0.0248907 
v 0.0484516 0.0705226 0.0249726 
v 0.0489039 0.070975 0.024901 
v 0.0493793 0.0714503 0.0247807 
v -0.0715451 0.0715451 0.0247553 
v 0.0489685 0.0710396 0.0248907 
v -0.0720337 0.0720337 0.0245677 
v 0.049474 0.0715451 0.0247553 
v 0.0498405 0.0719116 0.0246146 
v -0.0725 0.0725 0.0243301 
v 0.0499626 0.0720337 0.0245677 
v 0.0502832 0.0723543 0.0244044 
v -0.0729389 0.0729389 0.0240451 
v 0.0504289 0.0725 0.0243301 
v 0.0507033 0.0727743 0.024152 
v 0.0510966 0.0731677 0.0238598 
v -0.0733457 0.0733457 0.0237157 
v 0.0508679 0.0729389 0.0240451 
v 0.0512746 0.0733457 0.0237157 
vn 1.85037e-16 -1 0 
vn 0 0 -1 
vn -1.85037e-16 1 0 
vn 0.707107 1.30841e-16 0.707107 
vn -1 0 0 
vn 0 -0.104528 0.994522 
vn 0 -0.0980293 0.995184 
vn 0 2.59052e-15 1 
vn 0 -0.207912 0.978148 
vn 0 -0.19511 0.980781 
vn 0 -0.309017 0.951057 
vn 0 -0.290307 0.956934 
vn 0 -0.406737 0.913545 
vn 0 -0.382704 0.923871 
vn 0 -0.5 0.866025 
vn 0 -0.471414 0.881912 
vn 0 -0.587785 0.809017 
vn 0 -0.555582 0.831462 
vn 0 -0.669131 0.743145 
vn 0 -0.634399 0.773006 
vn 0 -0.743145 0.669131 
vn 0 -0.707107 0.707107 
vn 0 -0.809017 0.587785 
vn 0 -0.838671 0.544639 
vn 0 -0.866025 0.5 
vn 0 -0.891007 0.45399 
vn 0 -0.913545 0.406737 
vn 0 -0.866025 0.5 
vn 0 -0.93358 0.358368 
vn 0 -0.951057 0.309017 
vn 0 -0.913545 0.406737 
vn 0 -0.965926 0.258819 
vn 0 -0.978148 0.207912 
vn 0 -0.951057 0.309017 
vn 0 -0.987688 0.156434 
vn 0 -0.994522 0.104528 
vn 0 -0.978148 0.207912 
vn 0 -0.99863 0.052336 
vn 0 -1 0 
vn 0 -0.994522 0.104528 
vn 0 0.99863 0.052336 
vn 0 0.994522 0.104528 
vn -1.85037e-16 1 0 
vn 0 0.987688 0.156434 
vn 0 0.978148 0.207912 
vn 0 0.965926 0.258819 
vn 0 0.951057 0.309017 
vn 0 0.93358 0.358368 
vn 0 0.913545 0.406737 
vn 0 0.891007 0.45399 
vn 0 0.866025 0.5 
vn 0 0.838671 0.544639 
vn 0 0.809017 0.587785 
vn 0 0.743145 0.669131 
vn 0 0.104528 0.994522 
vn -5.86541e-31 3.16986e-15 1 
vn 0 0.0980293 0.995184 
vn 0 0.207912 0.978148 
vn 0 0.104528 0.994522 
vn 0 0.19511 0.980781 
vn 0 0.290307 0.956934 
vn 0 0.309017 0.951057 
vn 0 0.207912 0.978148 
vn 0 0.406737 0.913545 
vn 0 0.309017 0.951057 
vn 0 0.382704 0.923871 
vn 0 0.5 0.866025 
vn 0 0.406737 0.913545 
vn 0 0.471414 0.881912 
vn 0 0.587785 0.809017 
vn 0 0.5 0.866025 
vn 0 0.555582 0.831462 
vn 0 0.634399 0.773006 
vn 0 0.669131 0.743145 
vn 0 0.587785 0.809017 
vn 0 0.707107 0.707107 
vn 0 0 1 
vn 0.669131 0 0.743145 
vn 0.634399 0 0.773006 
vn 0.707107 1.30841e-16 0.707107 
vn 0.587785 0 0.809017 
vn 0.555582 0 0.831462 
vn 0.5 0 0.866025 
vn 0.471414 0 0.881912 
vn 0.406737 0 0.913545 
vn 0.382704 0 0.923871 
vn 0.309017 0 0.951057 
vn 0.290307 0 0.956934 
vn 0.207912 0 0.978148 
vn 0.19511 0 0.980781 
vn 0.104528 0 0.994522 
vn 0.0980293 0 0.995184 
vn -5.04579e-15 -9.33659e-31 1 
vn -0.104528 0 0.994522 
vn -0.207912 0 0.978148 
vn -0.309017 0 0.951057 
vn -0.406737 0 0.913545 
vn -0.5 0 0.866025 
vn -0.587785 0 0.809017 
vn -0.669131 0 0.743145 
vn -0.743145 0 0.669131 
vn -0.809017 0 0.587785 
vn -0.838671 0 0.544639 
vn -0.866025 0 0.5 
vn -0.891007 0 0.45399 
vn -0.913545 0 0.406737 
vn -0.93358 0 0.358368 
vn -0.951057 0 0.309017 
vn -0.965926 0 0.258819 
vn -0.978148 0 0.207912 
vn -0.987688 0 0.156434 
vn -0.994522 0 0.104528 
vn -0.99863 0 0.052336 
vn -1 0 -1.83697e-16 
vn -0.743145 0 0.669131 
vn -0.5 0 0.866025 
vn -0.104528 0 0.994522 
usemtl 0.615686_0.811765_0.929412_0.000000_0.000000
o mesh0
f 1//1 2//1 3//1 
f 3//1 4//1 1//1 
o mesh1
f 5//2 2//2 1//2 
f 1//2 6//2 5//2 
o mesh2
f 6//3 7//3 8//3 
f 8//3 5//3 6//3 
o mesh3
f 9//4 10//4 11//4 
f 11//4 12//4 9//4 
f 3//4 13//4 14//4 
f 12//4 15//4 9//4 
f 3//4 16//4 13//4 
f 15//4 17//4 9//4 
f 3//4 18//4 16//4 
f 17//4 19//4 9//4 
f 3//4 20//4 18//4 
f 19//4 21//4 9//4 
f 9//4 22//4 23//4 
f 3//4 24//4 20//4 
f 23//4 10//4 9//4 
f 3//4 8//4 24//4 
f 3//4 2//4 5//4 
f 14//4 9//4 3//4 
f 21//4 3//4 9//4 
f 5//4 8//4 3//4 
o mesh4
f 6//5 1//5 4//5 
f 4//5 7//5 6//5 
o mesh5
f 25//6 26//6 27//7 
f 27//7 28//8 25//6 
f 27//7 29//8 28//8 
f 30//9 31//9 32//10 
f 32//10 25//6 30//9 
f 32//10 26//6 25//6 
f 33//11 34//11 35//12 
f 35//12 30//9 33//11 
f 35//12 31//9 30//9 
f 36//13 37//13 38//14 
f 38//14 33//11 36//13 
f 38//14 34//11 33//11 
f 39//15 40//15 41//16 
f 41//16 36//13 39//15 
f 41//16 37//13 36//13 
f 42//17 43//17 44//18 
f 44//18 39//15 42//17 
f 44//18 40//15 39//15 
f 45//19 46//19 47//20 
f 47//20 42//17 45//19 
f 47//20 43//17 42//17 
f 48//21 10//21 23//22 
f 23//22 45//19 48//21 
f 23//22 46//19 45//19 
f 49//23 11//23 10//21 
f 50//24 12//25 11//23 
f 11//23 49//23 50//24 
f 51//26 15//27 12//25 
f 12//25 52//28 51//26 
f 53//29 17//30 15//27 
f 15//27 54//31 53//29 
f 55//32 19//33 17//30 
f 17//30 56//34 55//32 
f 57//35 21//36 19//33 
f 19//33 58//37 57//35 
f 59//38 3//39 21//36 
f 21//36 60//40 59//38 
f 59//38 4//39 3//39 
f 57//35 60//40 21//36 
f 55//32 58//37 19//33 
f 53//29 56//34 17//30 
f 51//26 54//31 15//27 
f 50//24 52//28 12//25 
f 10//21 48//21 49//23 
o mesh6
f 61//41 62//42 24//42 
f 8//43 7//43 61//41 
f 63//44 64//45 20//45 
f 24//42 62//42 63//44 
f 65//46 66//47 18//47 
f 20//45 64//45 65//46 
f 67//48 68//49 16//49 
f 18//47 66//47 67//48 
f 69//50 70//51 13//51 
f 16//49 68//49 69//50 
f 71//52 72//53 14//53 
f 13//51 70//51 71//52 
f 72//53 73//54 9//54 
f 74//55 75//56 76//56 
f 76//56 77//57 74//55 
f 78//58 74//55 79//59 
f 79//59 80//60 78//58 
f 81//61 82//62 78//58 
f 78//58 83//63 81//61 
f 84//64 82//62 85//65 
f 85//65 86//66 84//64 
f 87//67 84//64 88//68 
f 88//68 89//69 87//67 
f 90//70 87//67 91//71 
f 91//71 92//72 90//70 
f 93//73 94//74 90//70 
f 90//70 95//75 93//73 
f 73//54 94//74 96//74 
f 96//74 22//76 73//54 
f 22//76 9//54 73//54 
f 93//73 96//74 94//74 
f 92//72 95//75 90//70 
f 89//69 91//71 87//67 
f 86//66 88//68 84//64 
f 81//61 85//65 82//62 
f 80//60 83//63 78//58 
f 77//57 79//59 74//55 
f 9//54 14//53 72//53 
f 14//53 13//51 71//52 
f 13//51 16//49 69//50 
f 16//49 18//47 67//48 
f 18//47 20//45 65//46 
f 20//45 24//42 63//44 
f 24//42 8//43 61//41 
o mesh7
f 29//77 76//77 75//77 
f 75//77 28//77 29//77 
o mesh8
f 46//78 96//78 93//79 
f 93//79 47//79 46//78 
f 23//80 22//80 96//78 
f 43//81 95//81 92//82 
f 43//81 93//79 95//81 
f 92//82 44//82 43//81 
f 40//83 91//83 89//84 
f 40//83 92//82 91//83 
f 89//84 41//84 40//83 
f 88//85 86//86 38//86 
f 38//86 37//85 88//85 
f 41//84 89//84 88//85 
f 85//87 81//88 35//88 
f 35//88 34//87 85//87 
f 38//86 86//86 85//87 
f 31//89 83//89 80//90 
f 80//90 32//90 31//89 
f 35//88 81//88 83//89 
f 79//91 77//92 27//92 
f 26//91 80//90 79//91 
f 27//92 26//91 79//91 
f 77//92 76//93 29//93 
f 29//93 27//92 77//92 
f 26//91 32//90 80//90 
f 31//89 35//88 83//89 
f 34//87 38//86 85//87 
f 37//85 41//84 88//85 
f 40//83 44//82 92//82 
f 43//81 47//79 93//79 
f 46//78 23//80 96//78 
o mesh9
f 25//94 28//93 75//93 
f 78//95 30//95 25//94 
f 82//96 33//96 30//95 
f 36//97 33//96 82//96 
f 39//98 36//97 84//97 
f 90//99 42//99 39//98 
f 94//100 45//100 42//99 
f 48//101 45//100 94//100 
f 72//102 49//102 48//101 
f 50//103 49//102 72//102 
f 72//102 71//103 50//103 
f 70//104 52//104 50//103 
f 51//105 52//104 70//104 
f 69//105 54//106 51//105 
f 70//104 69//105 51//105 
f 67//107 53//107 54//106 
f 54//106 68//106 67//107 
f 66//108 56//108 53//107 
f 55//109 56//108 66//108 
f 66//108 65//109 55//109 
f 64//110 58//110 55//109 
f 57//111 58//110 64//110 
f 64//110 63//111 57//111 
f 62//112 60//112 57//111 
f 59//113 60//112 62//112 
f 62//112 61//113 59//113 
f 7//114 4//114 59//113 
f 61//113 7//114 59//113 
f 63//111 62//112 57//111 
f 65//109 64//110 55//109 
f 67//107 66//108 53//107 
f 69//105 68//106 54//106 
f 71//103 70//104 50//103 
f 48//101 73//115 72//102 
f 94//100 73//115 48//101 
f 42//99 90//99 94//100 
f 39//98 87//116 90//99 
f 84//97 87//116 39//98 
f 82//96 84//97 36//97 
f 30//95 78//95 82//96 
f 25//94 74//117 78//95 
f 75//93 74//117 25//94 
